# xmcd CD database file
#
# Track frame offsets:
#	150
#	12186
#	32370
#	53400
#	69404
#	112919
#	136144
#	158569
#	173132
#	197394
#
# Disc length: 2761 seconds
#
# Revision: 0
# Processed by: cddbd v1.4PL0 Copyright (c) Steve Scherf et al.
# Submitted via: CDex 1.51
#
DISCID=680ac70a
DTITLE=Hans Koller - New York City
DYEAR=1979
DGENRE=Jazz
TTITLE0=Opening
TTITLE1=52nd Street
TTITLE2=Central Park
TTITLE3=Manhattan
TTITLE4=Brooklyn
TTITLE5=Skyline
TTITLE6=Harlem
TTITLE7=Freedom
TTITLE8=Black and white
TTITLE9=Ending
EXTD=YEAR: 1979
EXTT0=
EXTT1=
EXTT2=
EXTT3=
EXTT4=
EXTT5=
EXTT6=
EXTT7=
EXTT8=
EXTT9=
PLAYORDER=
